<?xml version="1.0" encoding="utf-8" standalone="no"?>
<!DOCTYPE svg PUBLIC "-//W3C//DTD SVG 1.1//EN"
  "http://www.w3.org/Graphics/SVG/1.1/DTD/svg11.dtd">
<svg xmlns:xlink="http://www.w3.org/1999/xlink" width="769.89375pt" height="392.514375pt" viewBox="0 0 769.89375 392.514375" xmlns="http://www.w3.org/2000/svg" version="1.1">
 <metadata>
  <rdf:RDF xmlns:dc="http://purl.org/dc/elements/1.1/" xmlns:cc="http://creativecommons.org/ns#" xmlns:rdf="http://www.w3.org/1999/02/22-rdf-syntax-ns#">
   <cc:Work>
    <dc:type rdf:resource="http://purl.org/dc/dcmitype/StillImage"/>
    <dc:date>2025-02-13T18:17:38.095785</dc:date>
    <dc:format>image/svg+xml</dc:format>
    <dc:creator>
     <cc:Agent>
      <dc:title>Matplotlib v3.8.4, https://matplotlib.org/</dc:title>
     </cc:Agent>
    </dc:creator>
   </cc:Work>
  </rdf:RDF>
 </metadata>
 <defs>
  <style type="text/css">*{stroke-linejoin: round; stroke-linecap: butt}</style>
 </defs>
 <g id="figure_1">
  <g id="patch_1">
   <path d="M 0 392.514375 
L 769.89375 392.514375 
L 769.89375 0 
L 0 0 
z
" style="fill: #ffffff"/>
  </g>
  <g id="axes_1">
   <g id="patch_2">
    <path d="M 40.603125 354.958125 
L 710.203125 354.958125 
L 710.203125 22.318125 
L 40.603125 22.318125 
z
" style="fill: #ffffff"/>
   </g>
   <g id="matplotlib.axis_1">
    <g id="xtick_1">
     <g id="line2d_1">
      <path d="M 40.603125 354.958125 
L 40.603125 22.318125 
" clip-path="url(#pac2d532e3a)" style="fill: none; stroke: #b0b0b0; stroke-width: 0.8; stroke-linecap: square"/>
     </g>
     <g id="line2d_2">
      <defs>
       <path id="m1bfa6365d3" d="M 0 0 
L 0 3.5 
" style="stroke: #000000; stroke-width: 0.8"/>
      </defs>
      <g>
       <use xlink:href="#m1bfa6365d3" x="40.603125" y="354.958125" style="stroke: #000000; stroke-width: 0.8"/>
      </g>
     </g>
     <g id="text_1">
      <!-- 0 -->
      <g transform="translate(37.421875 369.556562) scale(0.1 -0.1)">
       <defs>
        <path id="DejaVuSans-30" d="M 2034 4250 
Q 1547 4250 1301 3770 
Q 1056 3291 1056 2328 
Q 1056 1369 1301 889 
Q 1547 409 2034 409 
Q 2525 409 2770 889 
Q 3016 1369 3016 2328 
Q 3016 3291 2770 3770 
Q 2525 4250 2034 4250 
z
M 2034 4750 
Q 2819 4750 3233 4129 
Q 3647 3509 3647 2328 
Q 3647 1150 3233 529 
Q 2819 -91 2034 -91 
Q 1250 -91 836 529 
Q 422 1150 422 2328 
Q 422 3509 836 4129 
Q 1250 4750 2034 4750 
z
" transform="scale(0.015625)"/>
       </defs>
       <use xlink:href="#DejaVuSans-30"/>
      </g>
     </g>
    </g>
    <g id="xtick_2">
     <g id="line2d_3">
      <path d="M 180.738112 354.958125 
L 180.738112 22.318125 
" clip-path="url(#pac2d532e3a)" style="fill: none; stroke: #b0b0b0; stroke-width: 0.8; stroke-linecap: square"/>
     </g>
     <g id="line2d_4">
      <g>
       <use xlink:href="#m1bfa6365d3" x="180.738112" y="354.958125" style="stroke: #000000; stroke-width: 0.8"/>
      </g>
     </g>
     <g id="text_2">
      <!-- 2000 -->
      <g transform="translate(168.013112 369.556562) scale(0.1 -0.1)">
       <defs>
        <path id="DejaVuSans-32" d="M 1228 531 
L 3431 531 
L 3431 0 
L 469 0 
L 469 531 
Q 828 903 1448 1529 
Q 2069 2156 2228 2338 
Q 2531 2678 2651 2914 
Q 2772 3150 2772 3378 
Q 2772 3750 2511 3984 
Q 2250 4219 1831 4219 
Q 1534 4219 1204 4116 
Q 875 4013 500 3803 
L 500 4441 
Q 881 4594 1212 4672 
Q 1544 4750 1819 4750 
Q 2544 4750 2975 4387 
Q 3406 4025 3406 3419 
Q 3406 3131 3298 2873 
Q 3191 2616 2906 2266 
Q 2828 2175 2409 1742 
Q 1991 1309 1228 531 
z
" transform="scale(0.015625)"/>
       </defs>
       <use xlink:href="#DejaVuSans-32"/>
       <use xlink:href="#DejaVuSans-30" x="63.623047"/>
       <use xlink:href="#DejaVuSans-30" x="127.246094"/>
       <use xlink:href="#DejaVuSans-30" x="190.869141"/>
      </g>
     </g>
    </g>
    <g id="xtick_3">
     <g id="line2d_5">
      <path d="M 320.873098 354.958125 
L 320.873098 22.318125 
" clip-path="url(#pac2d532e3a)" style="fill: none; stroke: #b0b0b0; stroke-width: 0.8; stroke-linecap: square"/>
     </g>
     <g id="line2d_6">
      <g>
       <use xlink:href="#m1bfa6365d3" x="320.873098" y="354.958125" style="stroke: #000000; stroke-width: 0.8"/>
      </g>
     </g>
     <g id="text_3">
      <!-- 4000 -->
      <g transform="translate(308.148098 369.556562) scale(0.1 -0.1)">
       <defs>
        <path id="DejaVuSans-34" d="M 2419 4116 
L 825 1625 
L 2419 1625 
L 2419 4116 
z
M 2253 4666 
L 3047 4666 
L 3047 1625 
L 3713 1625 
L 3713 1100 
L 3047 1100 
L 3047 0 
L 2419 0 
L 2419 1100 
L 313 1100 
L 313 1709 
L 2253 4666 
z
" transform="scale(0.015625)"/>
       </defs>
       <use xlink:href="#DejaVuSans-34"/>
       <use xlink:href="#DejaVuSans-30" x="63.623047"/>
       <use xlink:href="#DejaVuSans-30" x="127.246094"/>
       <use xlink:href="#DejaVuSans-30" x="190.869141"/>
      </g>
     </g>
    </g>
    <g id="xtick_4">
     <g id="line2d_7">
      <path d="M 461.008085 354.958125 
L 461.008085 22.318125 
" clip-path="url(#pac2d532e3a)" style="fill: none; stroke: #b0b0b0; stroke-width: 0.8; stroke-linecap: square"/>
     </g>
     <g id="line2d_8">
      <g>
       <use xlink:href="#m1bfa6365d3" x="461.008085" y="354.958125" style="stroke: #000000; stroke-width: 0.8"/>
      </g>
     </g>
     <g id="text_4">
      <!-- 6000 -->
      <g transform="translate(448.283085 369.556562) scale(0.1 -0.1)">
       <defs>
        <path id="DejaVuSans-36" d="M 2113 2584 
Q 1688 2584 1439 2293 
Q 1191 2003 1191 1497 
Q 1191 994 1439 701 
Q 1688 409 2113 409 
Q 2538 409 2786 701 
Q 3034 994 3034 1497 
Q 3034 2003 2786 2293 
Q 2538 2584 2113 2584 
z
M 3366 4563 
L 3366 3988 
Q 3128 4100 2886 4159 
Q 2644 4219 2406 4219 
Q 1781 4219 1451 3797 
Q 1122 3375 1075 2522 
Q 1259 2794 1537 2939 
Q 1816 3084 2150 3084 
Q 2853 3084 3261 2657 
Q 3669 2231 3669 1497 
Q 3669 778 3244 343 
Q 2819 -91 2113 -91 
Q 1303 -91 875 529 
Q 447 1150 447 2328 
Q 447 3434 972 4092 
Q 1497 4750 2381 4750 
Q 2619 4750 2861 4703 
Q 3103 4656 3366 4563 
z
" transform="scale(0.015625)"/>
       </defs>
       <use xlink:href="#DejaVuSans-36"/>
       <use xlink:href="#DejaVuSans-30" x="63.623047"/>
       <use xlink:href="#DejaVuSans-30" x="127.246094"/>
       <use xlink:href="#DejaVuSans-30" x="190.869141"/>
      </g>
     </g>
    </g>
    <g id="xtick_5">
     <g id="line2d_9">
      <path d="M 601.143072 354.958125 
L 601.143072 22.318125 
" clip-path="url(#pac2d532e3a)" style="fill: none; stroke: #b0b0b0; stroke-width: 0.8; stroke-linecap: square"/>
     </g>
     <g id="line2d_10">
      <g>
       <use xlink:href="#m1bfa6365d3" x="601.143072" y="354.958125" style="stroke: #000000; stroke-width: 0.8"/>
      </g>
     </g>
     <g id="text_5">
      <!-- 8000 -->
      <g transform="translate(588.418072 369.556562) scale(0.1 -0.1)">
       <defs>
        <path id="DejaVuSans-38" d="M 2034 2216 
Q 1584 2216 1326 1975 
Q 1069 1734 1069 1313 
Q 1069 891 1326 650 
Q 1584 409 2034 409 
Q 2484 409 2743 651 
Q 3003 894 3003 1313 
Q 3003 1734 2745 1975 
Q 2488 2216 2034 2216 
z
M 1403 2484 
Q 997 2584 770 2862 
Q 544 3141 544 3541 
Q 544 4100 942 4425 
Q 1341 4750 2034 4750 
Q 2731 4750 3128 4425 
Q 3525 4100 3525 3541 
Q 3525 3141 3298 2862 
Q 3072 2584 2669 2484 
Q 3125 2378 3379 2068 
Q 3634 1759 3634 1313 
Q 3634 634 3220 271 
Q 2806 -91 2034 -91 
Q 1263 -91 848 271 
Q 434 634 434 1313 
Q 434 1759 690 2068 
Q 947 2378 1403 2484 
z
M 1172 3481 
Q 1172 3119 1398 2916 
Q 1625 2713 2034 2713 
Q 2441 2713 2670 2916 
Q 2900 3119 2900 3481 
Q 2900 3844 2670 4047 
Q 2441 4250 2034 4250 
Q 1625 4250 1398 4047 
Q 1172 3844 1172 3481 
z
" transform="scale(0.015625)"/>
       </defs>
       <use xlink:href="#DejaVuSans-38"/>
       <use xlink:href="#DejaVuSans-30" x="63.623047"/>
       <use xlink:href="#DejaVuSans-30" x="127.246094"/>
       <use xlink:href="#DejaVuSans-30" x="190.869141"/>
      </g>
     </g>
    </g>
    <g id="text_6">
     <!-- Radius (km) -->
     <g transform="translate(345.384375 383.234687) scale(0.1 -0.1)">
      <defs>
       <path id="DejaVuSans-52" d="M 2841 2188 
Q 3044 2119 3236 1894 
Q 3428 1669 3622 1275 
L 4263 0 
L 3584 0 
L 2988 1197 
Q 2756 1666 2539 1819 
Q 2322 1972 1947 1972 
L 1259 1972 
L 1259 0 
L 628 0 
L 628 4666 
L 2053 4666 
Q 2853 4666 3247 4331 
Q 3641 3997 3641 3322 
Q 3641 2881 3436 2590 
Q 3231 2300 2841 2188 
z
M 1259 4147 
L 1259 2491 
L 2053 2491 
Q 2509 2491 2742 2702 
Q 2975 2913 2975 3322 
Q 2975 3731 2742 3939 
Q 2509 4147 2053 4147 
L 1259 4147 
z
" transform="scale(0.015625)"/>
       <path id="DejaVuSans-61" d="M 2194 1759 
Q 1497 1759 1228 1600 
Q 959 1441 959 1056 
Q 959 750 1161 570 
Q 1363 391 1709 391 
Q 2188 391 2477 730 
Q 2766 1069 2766 1631 
L 2766 1759 
L 2194 1759 
z
M 3341 1997 
L 3341 0 
L 2766 0 
L 2766 531 
Q 2569 213 2275 61 
Q 1981 -91 1556 -91 
Q 1019 -91 701 211 
Q 384 513 384 1019 
Q 384 1609 779 1909 
Q 1175 2209 1959 2209 
L 2766 2209 
L 2766 2266 
Q 2766 2663 2505 2880 
Q 2244 3097 1772 3097 
Q 1472 3097 1187 3025 
Q 903 2953 641 2809 
L 641 3341 
Q 956 3463 1253 3523 
Q 1550 3584 1831 3584 
Q 2591 3584 2966 3190 
Q 3341 2797 3341 1997 
z
" transform="scale(0.015625)"/>
       <path id="DejaVuSans-64" d="M 2906 2969 
L 2906 4863 
L 3481 4863 
L 3481 0 
L 2906 0 
L 2906 525 
Q 2725 213 2448 61 
Q 2172 -91 1784 -91 
Q 1150 -91 751 415 
Q 353 922 353 1747 
Q 353 2572 751 3078 
Q 1150 3584 1784 3584 
Q 2172 3584 2448 3432 
Q 2725 3281 2906 2969 
z
M 947 1747 
Q 947 1113 1208 752 
Q 1469 391 1925 391 
Q 2381 391 2643 752 
Q 2906 1113 2906 1747 
Q 2906 2381 2643 2742 
Q 2381 3103 1925 3103 
Q 1469 3103 1208 2742 
Q 947 2381 947 1747 
z
" transform="scale(0.015625)"/>
       <path id="DejaVuSans-69" d="M 603 3500 
L 1178 3500 
L 1178 0 
L 603 0 
L 603 3500 
z
M 603 4863 
L 1178 4863 
L 1178 4134 
L 603 4134 
L 603 4863 
z
" transform="scale(0.015625)"/>
       <path id="DejaVuSans-75" d="M 544 1381 
L 544 3500 
L 1119 3500 
L 1119 1403 
Q 1119 906 1312 657 
Q 1506 409 1894 409 
Q 2359 409 2629 706 
Q 2900 1003 2900 1516 
L 2900 3500 
L 3475 3500 
L 3475 0 
L 2900 0 
L 2900 538 
Q 2691 219 2414 64 
Q 2138 -91 1772 -91 
Q 1169 -91 856 284 
Q 544 659 544 1381 
z
M 1991 3584 
L 1991 3584 
z
" transform="scale(0.015625)"/>
       <path id="DejaVuSans-73" d="M 2834 3397 
L 2834 2853 
Q 2591 2978 2328 3040 
Q 2066 3103 1784 3103 
Q 1356 3103 1142 2972 
Q 928 2841 928 2578 
Q 928 2378 1081 2264 
Q 1234 2150 1697 2047 
L 1894 2003 
Q 2506 1872 2764 1633 
Q 3022 1394 3022 966 
Q 3022 478 2636 193 
Q 2250 -91 1575 -91 
Q 1294 -91 989 -36 
Q 684 19 347 128 
L 347 722 
Q 666 556 975 473 
Q 1284 391 1588 391 
Q 1994 391 2212 530 
Q 2431 669 2431 922 
Q 2431 1156 2273 1281 
Q 2116 1406 1581 1522 
L 1381 1569 
Q 847 1681 609 1914 
Q 372 2147 372 2553 
Q 372 3047 722 3315 
Q 1072 3584 1716 3584 
Q 2034 3584 2315 3537 
Q 2597 3491 2834 3397 
z
" transform="scale(0.015625)"/>
       <path id="DejaVuSans-20" transform="scale(0.015625)"/>
       <path id="DejaVuSans-28" d="M 1984 4856 
Q 1566 4138 1362 3434 
Q 1159 2731 1159 2009 
Q 1159 1288 1364 580 
Q 1569 -128 1984 -844 
L 1484 -844 
Q 1016 -109 783 600 
Q 550 1309 550 2009 
Q 550 2706 781 3412 
Q 1013 4119 1484 4856 
L 1984 4856 
z
" transform="scale(0.015625)"/>
       <path id="DejaVuSans-6b" d="M 581 4863 
L 1159 4863 
L 1159 1991 
L 2875 3500 
L 3609 3500 
L 1753 1863 
L 3688 0 
L 2938 0 
L 1159 1709 
L 1159 0 
L 581 0 
L 581 4863 
z
" transform="scale(0.015625)"/>
       <path id="DejaVuSans-6d" d="M 3328 2828 
Q 3544 3216 3844 3400 
Q 4144 3584 4550 3584 
Q 5097 3584 5394 3201 
Q 5691 2819 5691 2113 
L 5691 0 
L 5113 0 
L 5113 2094 
Q 5113 2597 4934 2840 
Q 4756 3084 4391 3084 
Q 3944 3084 3684 2787 
Q 3425 2491 3425 1978 
L 3425 0 
L 2847 0 
L 2847 2094 
Q 2847 2600 2669 2842 
Q 2491 3084 2119 3084 
Q 1678 3084 1418 2786 
Q 1159 2488 1159 1978 
L 1159 0 
L 581 0 
L 581 3500 
L 1159 3500 
L 1159 2956 
Q 1356 3278 1631 3431 
Q 1906 3584 2284 3584 
Q 2666 3584 2933 3390 
Q 3200 3197 3328 2828 
z
" transform="scale(0.015625)"/>
       <path id="DejaVuSans-29" d="M 513 4856 
L 1013 4856 
Q 1481 4119 1714 3412 
Q 1947 2706 1947 2009 
Q 1947 1309 1714 600 
Q 1481 -109 1013 -844 
L 513 -844 
Q 928 -128 1133 580 
Q 1338 1288 1338 2009 
Q 1338 2731 1133 3434 
Q 928 4138 513 4856 
z
" transform="scale(0.015625)"/>
      </defs>
      <use xlink:href="#DejaVuSans-52"/>
      <use xlink:href="#DejaVuSans-61" x="67.232422"/>
      <use xlink:href="#DejaVuSans-64" x="128.511719"/>
      <use xlink:href="#DejaVuSans-69" x="191.988281"/>
      <use xlink:href="#DejaVuSans-75" x="219.771484"/>
      <use xlink:href="#DejaVuSans-73" x="283.150391"/>
      <use xlink:href="#DejaVuSans-20" x="335.25"/>
      <use xlink:href="#DejaVuSans-28" x="367.037109"/>
      <use xlink:href="#DejaVuSans-6b" x="406.050781"/>
      <use xlink:href="#DejaVuSans-6d" x="463.960938"/>
      <use xlink:href="#DejaVuSans-29" x="561.373047"/>
     </g>
    </g>
   </g>
   <g id="matplotlib.axis_2">
    <g id="ytick_1">
     <g id="line2d_11">
      <path d="M 40.603125 339.838125 
L 710.203125 339.838125 
" clip-path="url(#pac2d532e3a)" style="fill: none; stroke: #b0b0b0; stroke-width: 0.8; stroke-linecap: square"/>
     </g>
     <g id="line2d_12">
      <defs>
       <path id="mabf7d8e7ec" d="M 0 0 
L -3.5 0 
" style="stroke: #000000; stroke-width: 0.8"/>
      </defs>
      <g>
       <use xlink:href="#mabf7d8e7ec" x="40.603125" y="339.838125" style="stroke: #000000; stroke-width: 0.8"/>
      </g>
     </g>
     <g id="text_7">
      <!-- 0 -->
      <g style="fill: #0000ff" transform="translate(27.240625 343.637344) scale(0.1 -0.1)">
       <use xlink:href="#DejaVuSans-30"/>
      </g>
     </g>
    </g>
    <g id="ytick_2">
     <g id="line2d_13">
      <path d="M 40.603125 283.231114 
L 710.203125 283.231114 
" clip-path="url(#pac2d532e3a)" style="fill: none; stroke: #b0b0b0; stroke-width: 0.8; stroke-linecap: square"/>
     </g>
     <g id="line2d_14">
      <g>
       <use xlink:href="#mabf7d8e7ec" x="40.603125" y="283.231114" style="stroke: #000000; stroke-width: 0.8"/>
      </g>
     </g>
     <g id="text_8">
      <!-- 2 -->
      <g style="fill: #0000ff" transform="translate(27.240625 287.030333) scale(0.1 -0.1)">
       <use xlink:href="#DejaVuSans-32"/>
      </g>
     </g>
    </g>
    <g id="ytick_3">
     <g id="line2d_15">
      <path d="M 40.603125 226.624103 
L 710.203125 226.624103 
" clip-path="url(#pac2d532e3a)" style="fill: none; stroke: #b0b0b0; stroke-width: 0.8; stroke-linecap: square"/>
     </g>
     <g id="line2d_16">
      <g>
       <use xlink:href="#mabf7d8e7ec" x="40.603125" y="226.624103" style="stroke: #000000; stroke-width: 0.8"/>
      </g>
     </g>
     <g id="text_9">
      <!-- 4 -->
      <g style="fill: #0000ff" transform="translate(27.240625 230.423321) scale(0.1 -0.1)">
       <use xlink:href="#DejaVuSans-34"/>
      </g>
     </g>
    </g>
    <g id="ytick_4">
     <g id="line2d_17">
      <path d="M 40.603125 170.017091 
L 710.203125 170.017091 
" clip-path="url(#pac2d532e3a)" style="fill: none; stroke: #b0b0b0; stroke-width: 0.8; stroke-linecap: square"/>
     </g>
     <g id="line2d_18">
      <g>
       <use xlink:href="#mabf7d8e7ec" x="40.603125" y="170.017091" style="stroke: #000000; stroke-width: 0.8"/>
      </g>
     </g>
     <g id="text_10">
      <!-- 6 -->
      <g style="fill: #0000ff" transform="translate(27.240625 173.81631) scale(0.1 -0.1)">
       <use xlink:href="#DejaVuSans-36"/>
      </g>
     </g>
    </g>
    <g id="ytick_5">
     <g id="line2d_19">
      <path d="M 40.603125 113.41008 
L 710.203125 113.41008 
" clip-path="url(#pac2d532e3a)" style="fill: none; stroke: #b0b0b0; stroke-width: 0.8; stroke-linecap: square"/>
     </g>
     <g id="line2d_20">
      <g>
       <use xlink:href="#mabf7d8e7ec" x="40.603125" y="113.41008" style="stroke: #000000; stroke-width: 0.8"/>
      </g>
     </g>
     <g id="text_11">
      <!-- 8 -->
      <g style="fill: #0000ff" transform="translate(27.240625 117.209299) scale(0.1 -0.1)">
       <use xlink:href="#DejaVuSans-38"/>
      </g>
     </g>
    </g>
    <g id="ytick_6">
     <g id="line2d_21">
      <path d="M 40.603125 56.803069 
L 710.203125 56.803069 
" clip-path="url(#pac2d532e3a)" style="fill: none; stroke: #b0b0b0; stroke-width: 0.8; stroke-linecap: square"/>
     </g>
     <g id="line2d_22">
      <g>
       <use xlink:href="#mabf7d8e7ec" x="40.603125" y="56.803069" style="stroke: #000000; stroke-width: 0.8"/>
      </g>
     </g>
     <g id="text_12">
      <!-- 10 -->
      <g style="fill: #0000ff" transform="translate(20.878125 60.602288) scale(0.1 -0.1)">
       <defs>
        <path id="DejaVuSans-31" d="M 794 531 
L 1825 531 
L 1825 4091 
L 703 3866 
L 703 4441 
L 1819 4666 
L 2450 4666 
L 2450 531 
L 3481 531 
L 3481 0 
L 794 0 
L 794 531 
z
" transform="scale(0.015625)"/>
       </defs>
       <use xlink:href="#DejaVuSans-31"/>
       <use xlink:href="#DejaVuSans-30" x="63.623047"/>
      </g>
     </g>
    </g>
    <g id="text_13">
     <!-- Gravitational Acceleration (m/s²) -->
     <g style="fill: #0000ff" transform="translate(14.798437 270.349062) rotate(-90) scale(0.1 -0.1)">
      <defs>
       <path id="DejaVuSans-47" d="M 3809 666 
L 3809 1919 
L 2778 1919 
L 2778 2438 
L 4434 2438 
L 4434 434 
Q 4069 175 3628 42 
Q 3188 -91 2688 -91 
Q 1594 -91 976 548 
Q 359 1188 359 2328 
Q 359 3472 976 4111 
Q 1594 4750 2688 4750 
Q 3144 4750 3555 4637 
Q 3966 4525 4313 4306 
L 4313 3634 
Q 3963 3931 3569 4081 
Q 3175 4231 2741 4231 
Q 1884 4231 1454 3753 
Q 1025 3275 1025 2328 
Q 1025 1384 1454 906 
Q 1884 428 2741 428 
Q 3075 428 3337 486 
Q 3600 544 3809 666 
z
" transform="scale(0.015625)"/>
       <path id="DejaVuSans-72" d="M 2631 2963 
Q 2534 3019 2420 3045 
Q 2306 3072 2169 3072 
Q 1681 3072 1420 2755 
Q 1159 2438 1159 1844 
L 1159 0 
L 581 0 
L 581 3500 
L 1159 3500 
L 1159 2956 
Q 1341 3275 1631 3429 
Q 1922 3584 2338 3584 
Q 2397 3584 2469 3576 
Q 2541 3569 2628 3553 
L 2631 2963 
z
" transform="scale(0.015625)"/>
       <path id="DejaVuSans-76" d="M 191 3500 
L 800 3500 
L 1894 563 
L 2988 3500 
L 3597 3500 
L 2284 0 
L 1503 0 
L 191 3500 
z
" transform="scale(0.015625)"/>
       <path id="DejaVuSans-74" d="M 1172 4494 
L 1172 3500 
L 2356 3500 
L 2356 3053 
L 1172 3053 
L 1172 1153 
Q 1172 725 1289 603 
Q 1406 481 1766 481 
L 2356 481 
L 2356 0 
L 1766 0 
Q 1100 0 847 248 
Q 594 497 594 1153 
L 594 3053 
L 172 3053 
L 172 3500 
L 594 3500 
L 594 4494 
L 1172 4494 
z
" transform="scale(0.015625)"/>
       <path id="DejaVuSans-6f" d="M 1959 3097 
Q 1497 3097 1228 2736 
Q 959 2375 959 1747 
Q 959 1119 1226 758 
Q 1494 397 1959 397 
Q 2419 397 2687 759 
Q 2956 1122 2956 1747 
Q 2956 2369 2687 2733 
Q 2419 3097 1959 3097 
z
M 1959 3584 
Q 2709 3584 3137 3096 
Q 3566 2609 3566 1747 
Q 3566 888 3137 398 
Q 2709 -91 1959 -91 
Q 1206 -91 779 398 
Q 353 888 353 1747 
Q 353 2609 779 3096 
Q 1206 3584 1959 3584 
z
" transform="scale(0.015625)"/>
       <path id="DejaVuSans-6e" d="M 3513 2113 
L 3513 0 
L 2938 0 
L 2938 2094 
Q 2938 2591 2744 2837 
Q 2550 3084 2163 3084 
Q 1697 3084 1428 2787 
Q 1159 2491 1159 1978 
L 1159 0 
L 581 0 
L 581 3500 
L 1159 3500 
L 1159 2956 
Q 1366 3272 1645 3428 
Q 1925 3584 2291 3584 
Q 2894 3584 3203 3211 
Q 3513 2838 3513 2113 
z
" transform="scale(0.015625)"/>
       <path id="DejaVuSans-6c" d="M 603 4863 
L 1178 4863 
L 1178 0 
L 603 0 
L 603 4863 
z
" transform="scale(0.015625)"/>
       <path id="DejaVuSans-41" d="M 2188 4044 
L 1331 1722 
L 3047 1722 
L 2188 4044 
z
M 1831 4666 
L 2547 4666 
L 4325 0 
L 3669 0 
L 3244 1197 
L 1141 1197 
L 716 0 
L 50 0 
L 1831 4666 
z
" transform="scale(0.015625)"/>
       <path id="DejaVuSans-63" d="M 3122 3366 
L 3122 2828 
Q 2878 2963 2633 3030 
Q 2388 3097 2138 3097 
Q 1578 3097 1268 2742 
Q 959 2388 959 1747 
Q 959 1106 1268 751 
Q 1578 397 2138 397 
Q 2388 397 2633 464 
Q 2878 531 3122 666 
L 3122 134 
Q 2881 22 2623 -34 
Q 2366 -91 2075 -91 
Q 1284 -91 818 406 
Q 353 903 353 1747 
Q 353 2603 823 3093 
Q 1294 3584 2113 3584 
Q 2378 3584 2631 3529 
Q 2884 3475 3122 3366 
z
" transform="scale(0.015625)"/>
       <path id="DejaVuSans-65" d="M 3597 1894 
L 3597 1613 
L 953 1613 
Q 991 1019 1311 708 
Q 1631 397 2203 397 
Q 2534 397 2845 478 
Q 3156 559 3463 722 
L 3463 178 
Q 3153 47 2828 -22 
Q 2503 -91 2169 -91 
Q 1331 -91 842 396 
Q 353 884 353 1716 
Q 353 2575 817 3079 
Q 1281 3584 2069 3584 
Q 2775 3584 3186 3129 
Q 3597 2675 3597 1894 
z
M 3022 2063 
Q 3016 2534 2758 2815 
Q 2500 3097 2075 3097 
Q 1594 3097 1305 2825 
Q 1016 2553 972 2059 
L 3022 2063 
z
" transform="scale(0.015625)"/>
       <path id="DejaVuSans-2f" d="M 1625 4666 
L 2156 4666 
L 531 -594 
L 0 -594 
L 1625 4666 
z
" transform="scale(0.015625)"/>
       <path id="DejaVuSans-b2" d="M 838 2444 
L 2163 2444 
L 2163 2088 
L 294 2088 
L 294 2431 
Q 400 2528 597 2703 
Q 1672 3656 1672 3950 
Q 1672 4156 1509 4282 
Q 1347 4409 1081 4409 
Q 919 4409 728 4354 
Q 538 4300 313 4191 
L 313 4575 
Q 553 4663 761 4706 
Q 969 4750 1147 4750 
Q 1600 4750 1872 4544 
Q 2144 4338 2144 4000 
Q 2144 3566 1109 2678 
Q 934 2528 838 2444 
z
" transform="scale(0.015625)"/>
      </defs>
      <use xlink:href="#DejaVuSans-47"/>
      <use xlink:href="#DejaVuSans-72" x="77.490234"/>
      <use xlink:href="#DejaVuSans-61" x="118.603516"/>
      <use xlink:href="#DejaVuSans-76" x="179.882812"/>
      <use xlink:href="#DejaVuSans-69" x="239.0625"/>
      <use xlink:href="#DejaVuSans-74" x="266.845703"/>
      <use xlink:href="#DejaVuSans-61" x="306.054688"/>
      <use xlink:href="#DejaVuSans-74" x="367.333984"/>
      <use xlink:href="#DejaVuSans-69" x="406.542969"/>
      <use xlink:href="#DejaVuSans-6f" x="434.326172"/>
      <use xlink:href="#DejaVuSans-6e" x="495.507812"/>
      <use xlink:href="#DejaVuSans-61" x="558.886719"/>
      <use xlink:href="#DejaVuSans-6c" x="620.166016"/>
      <use xlink:href="#DejaVuSans-20" x="647.949219"/>
      <use xlink:href="#DejaVuSans-41" x="679.736328"/>
      <use xlink:href="#DejaVuSans-63" x="746.394531"/>
      <use xlink:href="#DejaVuSans-63" x="801.375"/>
      <use xlink:href="#DejaVuSans-65" x="856.355469"/>
      <use xlink:href="#DejaVuSans-6c" x="917.878906"/>
      <use xlink:href="#DejaVuSans-65" x="945.662109"/>
      <use xlink:href="#DejaVuSans-72" x="1007.185547"/>
      <use xlink:href="#DejaVuSans-61" x="1048.298828"/>
      <use xlink:href="#DejaVuSans-74" x="1109.578125"/>
      <use xlink:href="#DejaVuSans-69" x="1148.787109"/>
      <use xlink:href="#DejaVuSans-6f" x="1176.570312"/>
      <use xlink:href="#DejaVuSans-6e" x="1237.751953"/>
      <use xlink:href="#DejaVuSans-20" x="1301.130859"/>
      <use xlink:href="#DejaVuSans-28" x="1332.917969"/>
      <use xlink:href="#DejaVuSans-6d" x="1371.931641"/>
      <use xlink:href="#DejaVuSans-2f" x="1469.34375"/>
      <use xlink:href="#DejaVuSans-73" x="1503.035156"/>
      <use xlink:href="#DejaVuSans-b2" x="1555.134766"/>
      <use xlink:href="#DejaVuSans-29" x="1595.222656"/>
     </g>
    </g>
   </g>
   <g id="line2d_23">
    <path d="M 40.603125 339.838125 
L 80.799223 280.620699 
L 102.237142 249.442389 
L 120.102074 223.842941 
L 126.801424 214.485397 
L 141.09337 196.93868 
L 148.685966 187.511942 
L 156.278563 178.092461 
L 180.396222 148.477704 
L 194.688168 131.347132 
L 202.727387 121.893906 
L 219.25245 102.983715 
L 228.631539 92.59532 
L 238.457252 82.005392 
L 247.836342 72.213613 
L 257.662054 62.302834 
L 263.914781 56.191977 
L 270.167507 50.240281 
L 279.546597 41.637579 
L 284.01283 37.676526 
L 284.459453 37.467339 
L 284.906076 37.438125 
L 286.69257 38.740233 
L 287.139193 38.713171 
L 288.925686 40.010752 
L 289.37231 39.985695 
L 290.71218 40.95863 
L 291.158803 40.929205 
L 292.052049 41.574352 
L 292.498673 41.552064 
L 293.838543 42.520241 
L 294.285166 42.493509 
L 295.178413 43.141064 
L 295.625036 43.115456 
L 296.518283 43.755751 
L 296.964906 43.737015 
L 297.858153 44.375792 
L 298.304776 44.358053 
L 299.198022 44.99522 
L 299.644646 44.972714 
L 300.091269 45.293586 
L 300.537892 45.277527 
L 301.431139 45.912315 
L 301.877762 45.891471 
L 302.324386 46.211068 
L 302.771009 46.190926 
L 303.664256 46.823111 
L 304.110879 46.809469 
L 304.557502 47.12767 
L 305.004126 47.109049 
L 305.450749 47.426816 
L 305.897372 47.408836 
L 306.343995 47.726151 
L 306.790619 47.708799 
L 307.237242 48.025643 
L 307.683865 48.008902 
L 308.130489 48.325261 
L 308.577112 48.309116 
L 309.470359 48.934661 
L 309.916982 48.924744 
L 310.363605 49.239431 
L 311.256852 49.215586 
L 311.703475 49.524348 
L 312.150098 49.515909 
L 312.596722 49.824121 
L 313.043345 49.816187 
L 313.489968 50.123835 
L 313.936592 50.116391 
L 314.383215 50.42346 
L 314.829838 50.416495 
L 315.276462 50.722969 
L 315.723085 50.716468 
L 316.169708 51.022336 
L 317.062955 51.005254 
L 317.509578 51.315918 
L 317.956202 51.305334 
L 318.402825 51.615338 
L 319.296071 51.600752 
L 319.742695 51.904794 
L 320.189318 51.90075 
L 320.635941 52.204111 
L 321.529188 52.191889 
L 321.975811 52.499859 
L 322.422435 52.491673 
L 322.869058 52.798919 
L 323.762305 52.788885 
L 324.208928 53.090165 
L 325.102175 53.081529 
L 325.548798 53.382066 
L 326.442044 53.374776 
L 326.888668 53.679736 
L 327.781914 53.673721 
L 328.228538 53.9727 
L 329.121784 53.967937 
L 329.568408 54.271237 
L 330.908278 54.263792 
L 331.354901 54.561079 
L 332.248148 54.559269 
L 332.694771 54.860777 
L 334.034641 54.857616 
L 334.481264 55.158127 
L 335.821134 55.157394 
L 336.267757 55.45187 
L 337.607627 55.458489 
L 338.054251 55.75194 
L 339.840744 55.760912 
L 340.287367 56.053215 
L 342.07386 56.066007 
L 342.520484 56.357104 
L 344.306977 56.373545 
L 344.7536 56.663394 
L 346.986717 56.686415 
L 347.43334 56.979683 
L 350.11308 57.012274 
L 350.559703 57.303869 
L 353.686066 57.349445 
L 354.13269 57.63914 
L 358.598923 57.725727 
L 359.045546 58.008253 
L 371.104376 58.326312 
L 382.269958 58.719837 
L 382.716582 58.484785 
L 387.629438 58.689043 
L 388.076061 58.455576 
L 391.649048 58.621338 
L 392.095671 58.392243 
L 395.222034 58.544513 
L 395.668658 58.323456 
L 398.348398 58.45844 
L 398.795021 58.240681 
L 401.028138 58.359449 
L 401.474761 58.144508 
L 403.707877 58.268467 
L 404.154501 58.052235 
L 406.387617 58.18533 
L 406.834241 57.971925 
L 408.620734 58.07983 
L 409.067357 57.868753 
L 410.85385 57.98424 
L 411.300474 57.7755 
L 413.086967 57.890461 
L 413.53359 57.684051 
L 414.87346 57.773792 
L 415.320083 57.569239 
L 417.106577 57.690875 
L 417.5532 57.492579 
L 418.89307 57.583276 
L 419.339693 57.386797 
L 420.679563 57.483725 
L 421.126187 57.285186 
L 422.466056 57.384432 
L 422.91268 57.187743 
L 424.25255 57.289268 
L 424.699173 57.094416 
L 426.039043 57.198182 
L 426.485666 57.005163 
L 427.378913 57.073206 
L 427.825536 56.88541 
L 429.165406 56.989657 
L 429.612029 56.803687 
L 430.505276 56.874617 
L 430.951899 56.686202 
L 432.291769 56.798505 
L 432.738393 56.611925 
L 433.631639 56.68945 
L 434.078263 56.504247 
L 435.418133 56.620773 
L 435.864756 56.43742 
L 436.758002 56.517761 
L 437.204626 56.335786 
L 438.097872 56.413715 
L 438.544496 56.236854 
L 439.437742 56.316119 
L 439.884366 56.136903 
L 440.777612 56.299685 
L 441.224236 56.173733 
L 442.117482 56.414369 
L 442.564105 56.288635 
L 443.903975 56.563623 
L 444.350599 56.441971 
L 445.243845 56.624458 
L 445.690469 56.500511 
L 446.137092 56.597058 
L 446.583715 56.527033 
L 447.476962 56.71709 
L 447.923585 56.602139 
L 448.816832 56.797166 
L 449.263455 56.681762 
L 450.156702 56.885339 
L 450.603325 56.773112 
L 451.496572 56.97795 
L 451.943195 56.872498 
L 452.836442 57.082261 
L 453.283065 57.027324 
L 454.176312 57.245408 
L 454.622935 57.142582 
L 455.069558 57.251884 
L 455.516182 57.15112 
L 456.409428 57.377384 
L 456.856051 57.279714 
L 457.749298 57.510679 
L 458.195921 57.416087 
L 458.642545 57.531811 
L 459.089168 57.451983 
L 459.982415 57.740592 
L 460.429038 57.67494 
L 461.322285 57.960857 
L 461.768908 57.896349 
L 462.215531 58.043244 
L 462.662155 57.979488 
L 463.555401 58.267038 
L 464.002024 58.207922 
L 464.448648 58.352101 
L 464.895271 58.290223 
L 465.788518 58.604569 
L 466.235141 58.547262 
L 466.681764 58.692185 
L 467.128388 58.632125 
L 468.021634 58.922745 
L 468.468258 58.867274 
L 468.914881 59.01297 
L 469.361504 58.954757 
L 470.254751 59.246899 
L 470.701374 59.193246 
L 471.147997 59.339692 
L 471.594621 59.288876 
L 472.041244 59.446478 
L 472.487867 59.404353 
L 474.274361 59.776848 
L 474.720984 59.733181 
L 475.614231 60.040525 
L 476.060854 59.992517 
L 476.507477 60.144869 
L 476.9541 60.099635 
L 477.400724 60.251019 
L 477.847347 60.201763 
L 478.740594 60.501896 
L 479.187217 60.455135 
L 479.63384 60.603948 
L 480.080464 60.480963 
L 480.527087 60.628845 
L 480.97371 60.577537 
L 481.420334 60.72782 
L 481.866957 60.675902 
L 482.760204 60.967143 
L 483.206827 60.914321 
L 483.65345 61.061994 
L 484.100073 61.008569 
L 484.546697 61.151935 
L 484.99332 61.097913 
L 486.33319 61.487687 
L 486.779813 61.746695 
L 487.226437 62.134641 
L 493.925786 70.281975 
L 500.625136 78.075957 
L 507.324486 85.536727 
L 514.470459 93.148684 
L 521.616432 100.423916 
L 528.762405 107.381994 
L 535.908378 114.041089 
L 543.500974 120.807649 
L 551.09357 127.274539 
L 558.686167 133.459198 
L 566.725386 139.718008 
L 574.764606 145.696362 
L 583.250449 151.720809 
L 591.736292 157.469128 
L 600.222135 162.957939 
L 609.154601 168.47218 
L 618.087067 173.732523 
L 627.466157 178.999409 
L 637.291869 184.252878 
L 647.117582 189.253099 
L 657.389918 194.227196 
L 667.662255 198.958848 
L 678.381214 203.654493 
L 689.546797 208.300468 
L 701.159003 212.884537 
L 710.538092 216.414354 
L 710.538092 216.414354 
" clip-path="url(#pac2d532e3a)" style="fill: none; stroke: #0000ff; stroke-width: 1.5; stroke-linecap: square"/>
   </g>
   <g id="patch_3">
    <path d="M 40.603125 354.958125 
L 40.603125 22.318125 
" style="fill: none; stroke: #000000; stroke-width: 0.8; stroke-linejoin: miter; stroke-linecap: square"/>
   </g>
   <g id="patch_4">
    <path d="M 710.203125 354.958125 
L 710.203125 22.318125 
" style="fill: none; stroke: #000000; stroke-width: 0.8; stroke-linejoin: miter; stroke-linecap: square"/>
   </g>
   <g id="patch_5">
    <path d="M 40.603125 354.958125 
L 710.203125 354.958125 
" style="fill: none; stroke: #000000; stroke-width: 0.8; stroke-linejoin: miter; stroke-linecap: square"/>
   </g>
   <g id="patch_6">
    <path d="M 40.603125 22.318125 
L 710.203125 22.318125 
" style="fill: none; stroke: #000000; stroke-width: 0.8; stroke-linejoin: miter; stroke-linecap: square"/>
   </g>
   <g id="legend_1">
    <g id="patch_7">
     <path d="M 603.1125 74.3525 
L 703.203125 74.3525 
Q 705.203125 74.3525 705.203125 72.3525 
L 705.203125 29.318125 
Q 705.203125 27.318125 703.203125 27.318125 
L 603.1125 27.318125 
Q 601.1125 27.318125 601.1125 29.318125 
L 601.1125 72.3525 
Q 601.1125 74.3525 603.1125 74.3525 
z
" style="fill: #ffffff; opacity: 0.8; stroke: #cccccc; stroke-linejoin: miter"/>
    </g>
    <g id="line2d_24">
     <path d="M 605.1125 35.416562 
L 615.1125 35.416562 
L 625.1125 35.416562 
" style="fill: none; stroke: #0000ff; stroke-width: 1.5; stroke-linecap: square"/>
    </g>
    <g id="text_14">
     <!-- Gravity -->
     <g transform="translate(633.1125 38.916562) scale(0.1 -0.1)">
      <defs>
       <path id="DejaVuSans-79" d="M 2059 -325 
Q 1816 -950 1584 -1140 
Q 1353 -1331 966 -1331 
L 506 -1331 
L 506 -850 
L 844 -850 
Q 1081 -850 1212 -737 
Q 1344 -625 1503 -206 
L 1606 56 
L 191 3500 
L 800 3500 
L 1894 763 
L 2988 3500 
L 3597 3500 
L 2059 -325 
z
" transform="scale(0.015625)"/>
      </defs>
      <use xlink:href="#DejaVuSans-47"/>
      <use xlink:href="#DejaVuSans-72" x="77.490234"/>
      <use xlink:href="#DejaVuSans-61" x="118.603516"/>
      <use xlink:href="#DejaVuSans-76" x="179.882812"/>
      <use xlink:href="#DejaVuSans-69" x="239.0625"/>
      <use xlink:href="#DejaVuSans-74" x="266.845703"/>
      <use xlink:href="#DejaVuSans-79" x="306.054688"/>
     </g>
    </g>
    <g id="line2d_25">
     <path d="M 605.1125 50.094687 
L 615.1125 50.094687 
L 625.1125 50.094687 
" style="fill: none; stroke: #ff0000; stroke-width: 1.5; stroke-linecap: square"/>
    </g>
    <g id="text_15">
     <!-- Density -->
     <g transform="translate(633.1125 53.594687) scale(0.1 -0.1)">
      <defs>
       <path id="DejaVuSans-44" d="M 1259 4147 
L 1259 519 
L 2022 519 
Q 2988 519 3436 956 
Q 3884 1394 3884 2338 
Q 3884 3275 3436 3711 
Q 2988 4147 2022 4147 
L 1259 4147 
z
M 628 4666 
L 1925 4666 
Q 3281 4666 3915 4102 
Q 4550 3538 4550 2338 
Q 4550 1131 3912 565 
Q 3275 0 1925 0 
L 628 0 
L 628 4666 
z
" transform="scale(0.015625)"/>
      </defs>
      <use xlink:href="#DejaVuSans-44"/>
      <use xlink:href="#DejaVuSans-65" x="77.001953"/>
      <use xlink:href="#DejaVuSans-6e" x="138.525391"/>
      <use xlink:href="#DejaVuSans-73" x="201.904297"/>
      <use xlink:href="#DejaVuSans-69" x="254.003906"/>
      <use xlink:href="#DejaVuSans-74" x="281.787109"/>
      <use xlink:href="#DejaVuSans-79" x="320.996094"/>
     </g>
    </g>
    <g id="line2d_26">
     <path d="M 605.1125 64.772812 
L 615.1125 64.772812 
L 625.1125 64.772812 
" style="fill: none; stroke-dasharray: 5.55,2.4; stroke-dashoffset: 0; stroke: #000000; stroke-width: 1.5"/>
    </g>
    <g id="text_16">
     <!-- Earth Surface -->
     <g transform="translate(633.1125 68.272812) scale(0.1 -0.1)">
      <defs>
       <path id="DejaVuSans-45" d="M 628 4666 
L 3578 4666 
L 3578 4134 
L 1259 4134 
L 1259 2753 
L 3481 2753 
L 3481 2222 
L 1259 2222 
L 1259 531 
L 3634 531 
L 3634 0 
L 628 0 
L 628 4666 
z
" transform="scale(0.015625)"/>
       <path id="DejaVuSans-68" d="M 3513 2113 
L 3513 0 
L 2938 0 
L 2938 2094 
Q 2938 2591 2744 2837 
Q 2550 3084 2163 3084 
Q 1697 3084 1428 2787 
Q 1159 2491 1159 1978 
L 1159 0 
L 581 0 
L 581 4863 
L 1159 4863 
L 1159 2956 
Q 1366 3272 1645 3428 
Q 1925 3584 2291 3584 
Q 2894 3584 3203 3211 
Q 3513 2838 3513 2113 
z
" transform="scale(0.015625)"/>
       <path id="DejaVuSans-53" d="M 3425 4513 
L 3425 3897 
Q 3066 4069 2747 4153 
Q 2428 4238 2131 4238 
Q 1616 4238 1336 4038 
Q 1056 3838 1056 3469 
Q 1056 3159 1242 3001 
Q 1428 2844 1947 2747 
L 2328 2669 
Q 3034 2534 3370 2195 
Q 3706 1856 3706 1288 
Q 3706 609 3251 259 
Q 2797 -91 1919 -91 
Q 1588 -91 1214 -16 
Q 841 59 441 206 
L 441 856 
Q 825 641 1194 531 
Q 1563 422 1919 422 
Q 2459 422 2753 634 
Q 3047 847 3047 1241 
Q 3047 1584 2836 1778 
Q 2625 1972 2144 2069 
L 1759 2144 
Q 1053 2284 737 2584 
Q 422 2884 422 3419 
Q 422 4038 858 4394 
Q 1294 4750 2059 4750 
Q 2388 4750 2728 4690 
Q 3069 4631 3425 4513 
z
" transform="scale(0.015625)"/>
       <path id="DejaVuSans-66" d="M 2375 4863 
L 2375 4384 
L 1825 4384 
Q 1516 4384 1395 4259 
Q 1275 4134 1275 3809 
L 1275 3500 
L 2222 3500 
L 2222 3053 
L 1275 3053 
L 1275 0 
L 697 0 
L 697 3053 
L 147 3053 
L 147 3500 
L 697 3500 
L 697 3744 
Q 697 4328 969 4595 
Q 1241 4863 1831 4863 
L 2375 4863 
z
" transform="scale(0.015625)"/>
      </defs>
      <use xlink:href="#DejaVuSans-45"/>
      <use xlink:href="#DejaVuSans-61" x="63.183594"/>
      <use xlink:href="#DejaVuSans-72" x="124.462891"/>
      <use xlink:href="#DejaVuSans-74" x="165.576172"/>
      <use xlink:href="#DejaVuSans-68" x="204.785156"/>
      <use xlink:href="#DejaVuSans-20" x="268.164062"/>
      <use xlink:href="#DejaVuSans-53" x="299.951172"/>
      <use xlink:href="#DejaVuSans-75" x="363.427734"/>
      <use xlink:href="#DejaVuSans-72" x="426.806641"/>
      <use xlink:href="#DejaVuSans-66" x="467.919922"/>
      <use xlink:href="#DejaVuSans-61" x="503.125"/>
      <use xlink:href="#DejaVuSans-63" x="564.404297"/>
      <use xlink:href="#DejaVuSans-65" x="619.384766"/>
     </g>
    </g>
   </g>
  </g>
  <g id="axes_2">
   <g id="matplotlib.axis_3">
    <g id="ytick_7">
     <g id="line2d_27">
      <defs>
       <path id="m04631b370a" d="M 0 0 
L 3.5 0 
" style="stroke: #000000; stroke-width: 0.8"/>
      </defs>
      <g>
       <use xlink:href="#m04631b370a" x="710.203125" y="339.838125" style="stroke: #000000; stroke-width: 0.8"/>
      </g>
     </g>
     <g id="text_17">
      <!-- 0 -->
      <g style="fill: #ff0000" transform="translate(717.203125 343.637344) scale(0.1 -0.1)">
       <use xlink:href="#DejaVuSans-30"/>
      </g>
     </g>
    </g>
    <g id="ytick_8">
     <g id="line2d_28">
      <g>
       <use xlink:href="#m04631b370a" x="710.203125" y="293.629551" style="stroke: #000000; stroke-width: 0.8"/>
      </g>
     </g>
     <g id="text_18">
      <!-- 2000 -->
      <g style="fill: #ff0000" transform="translate(717.203125 297.428769) scale(0.1 -0.1)">
       <use xlink:href="#DejaVuSans-32"/>
       <use xlink:href="#DejaVuSans-30" x="63.623047"/>
       <use xlink:href="#DejaVuSans-30" x="127.246094"/>
       <use xlink:href="#DejaVuSans-30" x="190.869141"/>
      </g>
     </g>
    </g>
    <g id="ytick_9">
     <g id="line2d_29">
      <g>
       <use xlink:href="#m04631b370a" x="710.203125" y="247.420976" style="stroke: #000000; stroke-width: 0.8"/>
      </g>
     </g>
     <g id="text_19">
      <!-- 4000 -->
      <g style="fill: #ff0000" transform="translate(717.203125 251.220195) scale(0.1 -0.1)">
       <use xlink:href="#DejaVuSans-34"/>
       <use xlink:href="#DejaVuSans-30" x="63.623047"/>
       <use xlink:href="#DejaVuSans-30" x="127.246094"/>
       <use xlink:href="#DejaVuSans-30" x="190.869141"/>
      </g>
     </g>
    </g>
    <g id="ytick_10">
     <g id="line2d_30">
      <g>
       <use xlink:href="#m04631b370a" x="710.203125" y="201.212402" style="stroke: #000000; stroke-width: 0.8"/>
      </g>
     </g>
     <g id="text_20">
      <!-- 6000 -->
      <g style="fill: #ff0000" transform="translate(717.203125 205.011621) scale(0.1 -0.1)">
       <use xlink:href="#DejaVuSans-36"/>
       <use xlink:href="#DejaVuSans-30" x="63.623047"/>
       <use xlink:href="#DejaVuSans-30" x="127.246094"/>
       <use xlink:href="#DejaVuSans-30" x="190.869141"/>
      </g>
     </g>
    </g>
    <g id="ytick_11">
     <g id="line2d_31">
      <g>
       <use xlink:href="#m04631b370a" x="710.203125" y="155.003828" style="stroke: #000000; stroke-width: 0.8"/>
      </g>
     </g>
     <g id="text_21">
      <!-- 8000 -->
      <g style="fill: #ff0000" transform="translate(717.203125 158.803047) scale(0.1 -0.1)">
       <use xlink:href="#DejaVuSans-38"/>
       <use xlink:href="#DejaVuSans-30" x="63.623047"/>
       <use xlink:href="#DejaVuSans-30" x="127.246094"/>
       <use xlink:href="#DejaVuSans-30" x="190.869141"/>
      </g>
     </g>
    </g>
    <g id="ytick_12">
     <g id="line2d_32">
      <g>
       <use xlink:href="#m04631b370a" x="710.203125" y="108.795254" style="stroke: #000000; stroke-width: 0.8"/>
      </g>
     </g>
     <g id="text_22">
      <!-- 10000 -->
      <g style="fill: #ff0000" transform="translate(717.203125 112.594472) scale(0.1 -0.1)">
       <use xlink:href="#DejaVuSans-31"/>
       <use xlink:href="#DejaVuSans-30" x="63.623047"/>
       <use xlink:href="#DejaVuSans-30" x="127.246094"/>
       <use xlink:href="#DejaVuSans-30" x="190.869141"/>
       <use xlink:href="#DejaVuSans-30" x="254.492188"/>
      </g>
     </g>
    </g>
    <g id="ytick_13">
     <g id="line2d_33">
      <g>
       <use xlink:href="#m04631b370a" x="710.203125" y="62.586679" style="stroke: #000000; stroke-width: 0.8"/>
      </g>
     </g>
     <g id="text_23">
      <!-- 12000 -->
      <g style="fill: #ff0000" transform="translate(717.203125 66.385898) scale(0.1 -0.1)">
       <use xlink:href="#DejaVuSans-31"/>
       <use xlink:href="#DejaVuSans-32" x="63.623047"/>
       <use xlink:href="#DejaVuSans-30" x="127.246094"/>
       <use xlink:href="#DejaVuSans-30" x="190.869141"/>
       <use xlink:href="#DejaVuSans-30" x="254.492188"/>
      </g>
     </g>
    </g>
    <g id="text_24">
     <!-- Density (kg/m³) -->
     <g style="fill: #ff0000" transform="translate(760.614063 227.76625) rotate(-90) scale(0.1 -0.1)">
      <defs>
       <path id="DejaVuSans-67" d="M 2906 1791 
Q 2906 2416 2648 2759 
Q 2391 3103 1925 3103 
Q 1463 3103 1205 2759 
Q 947 2416 947 1791 
Q 947 1169 1205 825 
Q 1463 481 1925 481 
Q 2391 481 2648 825 
Q 2906 1169 2906 1791 
z
M 3481 434 
Q 3481 -459 3084 -895 
Q 2688 -1331 1869 -1331 
Q 1566 -1331 1297 -1286 
Q 1028 -1241 775 -1147 
L 775 -588 
Q 1028 -725 1275 -790 
Q 1522 -856 1778 -856 
Q 2344 -856 2625 -561 
Q 2906 -266 2906 331 
L 2906 616 
Q 2728 306 2450 153 
Q 2172 0 1784 0 
Q 1141 0 747 490 
Q 353 981 353 1791 
Q 353 2603 747 3093 
Q 1141 3584 1784 3584 
Q 2172 3584 2450 3431 
Q 2728 3278 2906 2969 
L 2906 3500 
L 3481 3500 
L 3481 434 
z
" transform="scale(0.015625)"/>
       <path id="DejaVuSans-b3" d="M 1638 3500 
Q 1925 3444 2083 3273 
Q 2241 3103 2241 2847 
Q 2241 2459 1944 2250 
Q 1647 2041 1094 2041 
Q 916 2041 720 2073 
Q 525 2106 306 2169 
L 306 2547 
Q 469 2463 655 2422 
Q 841 2381 1050 2381 
Q 1391 2381 1578 2504 
Q 1766 2628 1766 2847 
Q 1766 3078 1592 3197 
Q 1419 3316 1081 3316 
L 813 3316 
L 813 3653 
L 1106 3653 
Q 1400 3653 1551 3751 
Q 1703 3850 1703 4038 
Q 1703 4219 1547 4314 
Q 1391 4409 1094 4409 
Q 969 4409 809 4381 
Q 650 4353 397 4281 
L 397 4641 
Q 625 4694 825 4722 
Q 1025 4750 1197 4750 
Q 1647 4750 1911 4565 
Q 2175 4381 2175 4072 
Q 2175 3856 2034 3706 
Q 1894 3556 1638 3500 
z
" transform="scale(0.015625)"/>
      </defs>
      <use xlink:href="#DejaVuSans-44"/>
      <use xlink:href="#DejaVuSans-65" x="77.001953"/>
      <use xlink:href="#DejaVuSans-6e" x="138.525391"/>
      <use xlink:href="#DejaVuSans-73" x="201.904297"/>
      <use xlink:href="#DejaVuSans-69" x="254.003906"/>
      <use xlink:href="#DejaVuSans-74" x="281.787109"/>
      <use xlink:href="#DejaVuSans-79" x="320.996094"/>
      <use xlink:href="#DejaVuSans-20" x="380.175781"/>
      <use xlink:href="#DejaVuSans-28" x="411.962891"/>
      <use xlink:href="#DejaVuSans-6b" x="450.976562"/>
      <use xlink:href="#DejaVuSans-67" x="508.886719"/>
      <use xlink:href="#DejaVuSans-2f" x="572.363281"/>
      <use xlink:href="#DejaVuSans-6d" x="606.054688"/>
      <use xlink:href="#DejaVuSans-b3" x="703.466797"/>
      <use xlink:href="#DejaVuSans-29" x="743.554688"/>
     </g>
    </g>
   </g>
   <g id="line2d_34">
    <path d="M 40.603125 37.438125 
L 54.895071 37.649399 
L 68.740394 38.250351 
L 82.585716 39.244697 
L 95.537792 40.537393 
L 104.023635 41.562174 
L 117.868958 43.557319 
L 125.908178 44.895176 
L 126.354801 57.446637 
L 126.801424 58.849588 
L 140.200123 61.280983 
L 153.598823 64.011251 
L 167.444146 67.17752 
L 181.289468 70.714713 
L 195.134791 74.646169 
L 208.53349 78.847453 
L 218.359203 82.201283 
L 229.524786 86.26646 
L 238.903875 89.939572 
L 250.069458 94.5854 
L 257.215431 97.735067 
L 263.914781 100.816643 
L 271.060754 104.237386 
L 277.760103 107.578653 
L 284.01283 110.804395 
L 284.459453 183.834096 
L 284.906076 211.306747 
L 373.784115 226.129012 
L 398.348398 230.522836 
L 422.91268 235.18371 
L 439.437742 238.497836 
L 440.330989 247.623544 
L 445.243845 248.096052 
L 458.642545 253.664247 
L 459.535791 258.084013 
L 471.147997 260.370222 
L 472.041244 262.203067 
L 484.99332 261.738861 
L 485.439943 267.302724 
L 485.886567 276.310004 
L 486.33319 279.766978 
L 486.779813 298.028496 
L 487.226437 339.838125 
L 710.538092 339.838125 
L 710.538092 339.838125 
" clip-path="url(#pac2d532e3a)" style="fill: none; stroke: #ff0000; stroke-width: 1.5; stroke-linecap: square"/>
   </g>
   <g id="line2d_35">
    <path d="M 487.003125 354.958125 
L 487.003125 22.318125 
" clip-path="url(#pac2d532e3a)" style="fill: none; stroke-dasharray: 5.55,2.4; stroke-dashoffset: 0; stroke: #000000; stroke-width: 1.5"/>
   </g>
   <g id="patch_8">
    <path d="M 40.603125 354.958125 
L 40.603125 22.318125 
" style="fill: none; stroke: #000000; stroke-width: 0.8; stroke-linejoin: miter; stroke-linecap: square"/>
   </g>
   <g id="patch_9">
    <path d="M 710.203125 354.958125 
L 710.203125 22.318125 
" style="fill: none; stroke: #000000; stroke-width: 0.8; stroke-linejoin: miter; stroke-linecap: square"/>
   </g>
   <g id="patch_10">
    <path d="M 40.603125 354.958125 
L 710.203125 354.958125 
" style="fill: none; stroke: #000000; stroke-width: 0.8; stroke-linejoin: miter; stroke-linecap: square"/>
   </g>
   <g id="patch_11">
    <path d="M 40.603125 22.318125 
L 710.203125 22.318125 
" style="fill: none; stroke: #000000; stroke-width: 0.8; stroke-linejoin: miter; stroke-linecap: square"/>
   </g>
   <g id="text_25">
    <!-- Earth's Gravity and Density Profiles -->
    <g transform="translate(269.119688 16.318125) scale(0.12 -0.12)">
     <defs>
      <path id="DejaVuSans-27" d="M 1147 4666 
L 1147 2931 
L 616 2931 
L 616 4666 
L 1147 4666 
z
" transform="scale(0.015625)"/>
      <path id="DejaVuSans-50" d="M 1259 4147 
L 1259 2394 
L 2053 2394 
Q 2494 2394 2734 2622 
Q 2975 2850 2975 3272 
Q 2975 3691 2734 3919 
Q 2494 4147 2053 4147 
L 1259 4147 
z
M 628 4666 
L 2053 4666 
Q 2838 4666 3239 4311 
Q 3641 3956 3641 3272 
Q 3641 2581 3239 2228 
Q 2838 1875 2053 1875 
L 1259 1875 
L 1259 0 
L 628 0 
L 628 4666 
z
" transform="scale(0.015625)"/>
     </defs>
     <use xlink:href="#DejaVuSans-45"/>
     <use xlink:href="#DejaVuSans-61" x="63.183594"/>
     <use xlink:href="#DejaVuSans-72" x="124.462891"/>
     <use xlink:href="#DejaVuSans-74" x="165.576172"/>
     <use xlink:href="#DejaVuSans-68" x="204.785156"/>
     <use xlink:href="#DejaVuSans-27" x="268.164062"/>
     <use xlink:href="#DejaVuSans-73" x="295.654297"/>
     <use xlink:href="#DejaVuSans-20" x="347.753906"/>
     <use xlink:href="#DejaVuSans-47" x="379.541016"/>
     <use xlink:href="#DejaVuSans-72" x="457.03125"/>
     <use xlink:href="#DejaVuSans-61" x="498.144531"/>
     <use xlink:href="#DejaVuSans-76" x="559.423828"/>
     <use xlink:href="#DejaVuSans-69" x="618.603516"/>
     <use xlink:href="#DejaVuSans-74" x="646.386719"/>
     <use xlink:href="#DejaVuSans-79" x="685.595703"/>
     <use xlink:href="#DejaVuSans-20" x="744.775391"/>
     <use xlink:href="#DejaVuSans-61" x="776.5625"/>
     <use xlink:href="#DejaVuSans-6e" x="837.841797"/>
     <use xlink:href="#DejaVuSans-64" x="901.220703"/>
     <use xlink:href="#DejaVuSans-20" x="964.697266"/>
     <use xlink:href="#DejaVuSans-44" x="996.484375"/>
     <use xlink:href="#DejaVuSans-65" x="1073.486328"/>
     <use xlink:href="#DejaVuSans-6e" x="1135.009766"/>
     <use xlink:href="#DejaVuSans-73" x="1198.388672"/>
     <use xlink:href="#DejaVuSans-69" x="1250.488281"/>
     <use xlink:href="#DejaVuSans-74" x="1278.271484"/>
     <use xlink:href="#DejaVuSans-79" x="1317.480469"/>
     <use xlink:href="#DejaVuSans-20" x="1376.660156"/>
     <use xlink:href="#DejaVuSans-50" x="1408.447266"/>
     <use xlink:href="#DejaVuSans-72" x="1467"/>
     <use xlink:href="#DejaVuSans-6f" x="1505.863281"/>
     <use xlink:href="#DejaVuSans-66" x="1567.044922"/>
     <use xlink:href="#DejaVuSans-69" x="1602.25"/>
     <use xlink:href="#DejaVuSans-6c" x="1630.033203"/>
     <use xlink:href="#DejaVuSans-65" x="1657.816406"/>
     <use xlink:href="#DejaVuSans-73" x="1719.339844"/>
    </g>
   </g>
  </g>
 </g>
 <defs>
  <clipPath id="pac2d532e3a">
   <rect x="40.603125" y="22.318125" width="669.6" height="332.64"/>
  </clipPath>
 </defs>
</svg>
